<svg xmlns="http://www.w3.org/2000/svg" width="112" height="113" viewBox="0 0 112 113" fill="none">
  <path d="M4.30774 35.9205V91.0159C4.30774 92.7296 4.98851 94.3731 6.20028 95.5849C7.41205 96.7967 9.05557 97.4774 10.7693 97.4774H100.828C102.648 97.4757 104.393 96.752 105.68 95.465C106.967 94.1781 107.691 92.4331 107.692 90.6131V36.3254C107.691 34.5051 106.968 32.7595 105.681 31.4721C104.394 30.1847 102.648 29.4607 100.828 29.459H10.7693C9.92074 29.459 9.0805 29.6261 8.29655 29.9508C7.5126 30.2756 6.80029 30.7515 6.20028 31.3515C5.60027 31.9515 5.12432 32.6638 4.79959 33.4478C4.47487 34.2317 4.30774 35.072 4.30774 35.9205Z" fill="#003BB3"/>
  <path d="M73.1018 20.7132V29.4578H67.6741V22.9317C67.6741 22.4461 67.4812 21.9805 67.1378 21.6371C66.7945 21.2938 66.3288 21.1009 65.8433 21.1009H46.1571C45.6716 21.1009 45.2059 21.2938 44.8626 21.6371C44.5193 21.9805 44.3264 22.4461 44.3264 22.9317V29.4578H38.8987V20.7132C38.8987 17.8486 41.2248 15.5225 44.111 15.5225H67.8895C70.7756 15.5225 73.1018 17.8486 73.1018 20.7132Z" fill="#EDC995"/>
  <path d="M4.30774 53.8611V40.1949C4.30774 38.4812 4.98851 36.8377 6.20028 35.6259C7.41205 34.4142 9.05557 33.7334 10.7693 33.7334H100.828C102.648 33.7351 104.393 34.4589 105.68 35.7458C106.967 37.0327 107.691 38.7777 107.692 40.5977V53.8611C107.692 72.438 4.30774 72.438 4.30774 53.8611Z" fill="white"/>
  <path d="M4.30774 49.5888V35.9205C4.30774 34.2068 4.98851 32.5633 6.20028 31.3515C7.41205 30.1398 9.05557 29.459 10.7693 29.459H100.828C102.648 29.4607 104.394 30.1847 105.681 31.4721C106.968 32.7595 107.691 34.5051 107.692 36.3254V49.5888C107.692 68.1658 4.30774 68.1658 4.30774 49.5888Z" fill="#003BB3"/>
  <path d="M63.6354 53.9571V71.9417C63.6354 73.0842 63.1815 74.1799 62.3737 74.9877C61.5658 75.7956 60.4702 76.2494 59.3277 76.2494H52.6723C50.3031 76.2494 48.3646 74.3109 48.3646 71.9417V53.9571C48.3646 52.8146 48.8185 51.719 49.6263 50.9111C50.4342 50.1033 51.5298 49.6494 52.6723 49.6494H59.3277C61.7185 49.6494 63.6354 51.5663 63.6354 53.9571Z" fill="#EDC995"/>
  <path d="M56 72.2022C57.9128 72.2022 59.4634 70.6515 59.4634 68.7388C59.4634 66.826 57.9128 65.2754 56 65.2754C54.0872 65.2754 52.5366 66.826 52.5366 68.7388C52.5366 70.6515 54.0872 72.2022 56 72.2022Z" fill="white"/>
</svg>